<?xml version="1.0" encoding="utf-8"?>
<!-- Generator: Adobe Illustrator 22.0.0, SVG Export Plug-In . SVG Version: 6.00 Build 0)  -->
<svg version="1.1" id="图层_1" xmlns="http://www.w3.org/2000/svg" xmlns:xlink="http://www.w3.org/1999/xlink" x="0px" y="0px"
	 viewBox="0 0 647.4 80" enable-background="new 0 0 647.4 80" xml:space="preserve">
<g>
	<path d="M9.8,41.1C15.2,51.3,13,58.7,8.6,61c-3.1,1.8-7.2,0.4-8.4-3.3c-1-3.6,1.1-6.2,4.1-7.5c2.4-1.4,5.2-4.9,4.7-9L9.8,41.1z
		 M19.8,36.6c0,1.1-4.5,3.3-8.8,3.3H9.5V1.8l11,4.2h27l4.5-5l9.3,7.1c-0.4,0.6-1.3,1.3-2.8,1.6v26.5c-0.1,0.6-5.1,2.4-8.5,2.4h-1.8
		v-3.9H19.8V36.6z M51.4,55.4c2.9,1.1,3.6,2.2,3.6,4c0,4.3-3.9,5.7-18.2,5.7h-8.7c-8.9,0-11.1-1.4-11.1-8.1V40.4l12.6,0.9
		c-0.1,1-0.8,1.6-2.3,1.8V55c0,1,0.4,1.3,2.6,1.3h8.2c2.3,0,4.8,0,5.9-0.1c1.3-0.1,1.8-0.3,2.4-1.1c1-1.2,2.3-3.9,4-8.2h0.7
		L51.4,55.4z M19.8,8v11h9.4V8H19.8z M29.2,32.7V21h-9.4v11.7H29.2z M29.7,36.5c22.8,3.3,13.1,20.9,4.1,13.5
		c-0.2-4.7-2.2-9.7-4.6-13.1L29.7,36.5z M38.9,8v11h9.3V8H38.9z M48.2,32.7V21h-9.3v11.7H48.2z M50.5,40.7
		c26.1,5.5,16.5,26.4,6.4,18c-0.3-6.3-3.1-13-7-17.6L50.5,40.7z"/>
	<path d="M71.2,17.5c20,1.2,11.9,16.3,3.8,10.5c-0.4-3.7-2.4-7.6-4.3-10.2L71.2,17.5z M91.7,11c-2.1,9-5.7,25.6-6.5,29.9
		c-0.5,2.6-0.9,5.3-0.8,7.1c0.1,4.2,3.4,6.5,3.2,13.2c-0.1,3.8-2.8,6.4-6.7,6.4c-1.8,0-3.8-0.9-4.5-3.8c1.5-7.5,1.2-14.8-0.5-16
		c-1-0.7-2.2-1.1-3.7-1.2v-1.3h3.1c1.1,0,1.4,0,2.1-1.5c1.4-2.8,1.4-2.8,13.1-33.1L91.7,11z M75.6,0.9c21.3,1.7,12.7,17.7,4.1,11.5
		c-0.6-4-2.7-8.2-4.6-11.1L75.6,0.9z M130.1,0.1c0,0,5.5,4.4,8.8,7.4c-0.1,0.8-1,1.1-2,1.1h-18.2l7.5,1.6c-0.3,1-1.2,1.6-2.8,1.8
		c-2,2-4.3,3.9-6.6,5.4h8.4l4-4.3l8.2,6.2c-0.4,0.5-1.2,1-2.4,1.3V40c-0.1,0.5-4.6,2.1-7.6,2.1h-1.6v-2.6h-1.3v16.3
		c0,6.3-1.4,10.9-11.1,11.6c-0.1-3.2-0.4-5.5-1.2-7c-0.8-1.4-2.1-2.5-5.2-3.1v-0.9c0,0,5.5,0.3,6.8,0.3c0.9,0,1.2-0.4,1.2-1.1V39.6
		h-1.9v0.6c0,0.8-3.8,2.8-7.6,2.8h-1.3V13.8l9.2,3.6h0.4c0.1-2.3,0.3-5.7,0.3-8.8h-12.7v15.3c0,13.1-0.6,31.6-14.6,43.4l-0.7-0.4
		C91.7,54,92,37.6,92,23.9V2.8l10.9,3.8h22.4L130.1,0.1z M114.9,47.9c-0.3,0.8-0.9,1.2-2.6,1.1c-3.3,5.2-8.4,11.3-15,15l-0.6-0.7
		c4-5.7,7-14.4,8-20.2L114.9,47.9z M113.2,19.4v8.4h12.7v-8.4H113.2z M125.9,37.6v-7.8h-12.7v7.8H125.9z M125.3,44.6
		c20.2,7.2,12.7,22.5,5,16.1c-0.6-5.3-3.3-11.4-5.7-15.8L125.3,44.6z"/>
	<path d="M154.5,14.5c0.9,5.6-0.8,9.7-3.6,11.4c-2.8,1.8-7.4,0.5-8.6-3.3c-0.9-3.6,1.1-6.2,4-7.5c2.3-1.1,5.5-4,5.4-7.1h0.8
		c0.7,1.6,1.2,3.1,1.6,4.5h21.4c-0.9-0.3-1.9-0.7-2.8-1.4c0.1-4-1.6-8.1-4.4-10.4l0.4-0.4c18.7-1.1,17,10.3,10.6,12.2h16.5l5.1-5.1
		l8.8,8.3c-0.6,0.6-1.3,0.9-2.8,0.9c-2.9,2.5-7.7,5.6-11.5,7.4l-0.4-0.4c0.6-2.6,1.1-6.2,1.3-9.1H154.5z M181.5,32
		c6.2,10.6,17.7,18.5,28.5,22.1l-0.2,0.9c-3.8,0.8-6.8,3.9-8.2,8.6c-9.9-6.2-16.5-16-20.7-29.2v30.1c0,0.9-4.5,3.1-8.4,3.1h-1.9
		V43.9c-6.6,8.6-16,15.6-28,20.5l-0.6-0.7c10.9-7.8,19-20.2,22.9-31.7h-19.5l-0.6-2h25.6V15.5l12.6,1.1c-0.1,0.9-0.6,1.6-2.3,1.8V30
		h12.7l5-6.5c0,0,5.7,4.4,9,7.4c-0.2,0.8-1,1.1-2,1.1H181.5z"/>
	<path d="M232.4,21c-0.3,0.7-0.9,1.1-2.3,1.4v42.2c-0.1,0.7-4.3,2.8-8.2,2.8h-1.8V31.6c-2.2,2.3-4.5,4.3-7,6.2l-0.7-0.5
		c5-9.2,10.1-23.6,12.2-37.3l13.8,4.1c-0.3,0.9-1.2,1.5-2.9,1.5c-1.9,5.3-4,9.9-6.5,14.2L232.4,21z M261.1,18.2
		c4.1,12.2,12.1,21.8,20.5,26.8l-0.3,0.8c-3.7,0.8-6.7,3.8-8.3,8.6c-7.3-8.1-10.9-20-13.1-36.2v32.1l3.7-5.6c0,0,4.8,4.4,7.4,7.3
		c-0.2,0.8-0.9,1.1-1.9,1.1h-9.2v11.3c0,1-4.4,3.6-8.3,3.6h-1.9V53.1h-9.2l-0.6-2h9.7V34.6c-4.5,8-10.7,14.8-18.7,20.2l-0.7-0.6
		c7.5-9.3,12.6-23.3,14.9-36h-12.1l-0.6-2h17.2v-16l12.8,1.2c-0.1,1.1-0.6,1.8-2.6,2.1v12.7h6l4.9-7c0,0,5.5,4.7,8.7,7.8
		c-0.2,0.8-1,1.1-2,1.1H261.1z"/>
	<path d="M308.5,29.2c10.6,4.8,14.5,9,14.5,17c0,9.4-7.2,15.9-20.5,15.9c-5.8,0-12.3-1.5-16.5-4.3l0.5-12.2h4.1l3.8,12.4
		c2.1,0.8,4.3,1.1,7,1.1c7,0,10.9-3.3,10.9-8.9c0-4.8-2.1-7.4-7.7-9.9l-3.4-1.5c-9.5-4.3-14.6-9-14.6-17.5c0-9.6,7.7-15,19.3-15
		c5.5,0,10.5,1.5,14.4,4l-0.6,11.6h-4.1l-3.6-11.8c-1.4-0.6-2.8-0.9-4.6-0.9c-6.2,0-10.2,3.1-10.2,8.4c0,4.9,2.7,7.5,7.7,9.8
		L308.5,29.2z"/>
	<path d="M373.2,58c-4.3,2.6-9.5,4.2-16.1,4.2c-15.7,0-28.3-9.2-28.3-28c0-19,13.4-27.9,28.8-27.9c6.1,0,10.4,1.5,15,4l-0.3,12.9
		h-4.2l-3.9-13.6C362.7,9.2,361,9,359.1,9c-9.9,0-17.7,7.8-17.7,25.3c0,17.5,7.7,25.1,18,25.1c2,0,3.8-0.3,5.5-0.9l3.8-13.3h4.2
		L373.2,58z"/>
	<path d="M396.7,37.8h20.7V43h-20.7V37.8z"/>
	<path d="M473.3,10.7c-0.1,7.2-0.1,14.6-0.1,22v3.1c0,7.2,0,14.6,0.1,21.9l6.2,0.6v2.4h-24.6v-2.4l6-0.6c0.2-7,0.2-14.4,0.2-22.6
		H442c0,8,0,15.4,0.2,22.6l5.9,0.6v2.4h-24.6v-2.4l6.3-0.6c0.1-7.2,0.1-14.5,0.1-21.9v-3.1c0-7.4,0-14.7-0.1-21.9l-6.3-0.6V7.7h24.6
		v2.4l-5.9,0.6c-0.2,7.1-0.2,14.4-0.2,21.7h19.1c0-7.2,0-14.6-0.2-21.7l-6-0.6V7.7h24.6v2.4L473.3,10.7z"/>
	<path d="M518.8,52.4c-2.9,6.1-8.6,9.6-15.8,9.6c-11.7,0-20.4-7.5-20.4-20.7c0-13.3,10.2-20.4,20.3-20.4c10.6,0,16.4,7.2,16.4,16.2
		c0,1.8-0.1,3-0.4,4.3h-24.1c0.4,11.1,5.7,15.6,12.4,15.6c5,0,8-2.1,10.4-5.4L518.8,52.4z M504.4,38.8c3.3,0,4.2-1.6,4.2-6
		c0-6.2-2.7-9.4-6.5-9.4c-3.9,0-7.1,4.4-7.4,15.4L504.4,38.8z"/>
	<path d="M564.3,56.4c-1.8,3.9-4.5,5.5-9,5.5c-4.7,0-7.3-2.3-8.4-6.2c-3.6,4-6.3,6.2-12,6.2c-6.1,0-10.4-3.7-10.4-9.7
		c0-6.5,3.7-9.9,15.1-13.3c2-0.6,4.5-1.2,7-1.8v-4.3c0-7.4-1.7-9.6-7.1-9.6c-1,0-1.9,0.1-3,0.3l-0.5,5c-0.2,4.8-2.6,6.7-5.3,6.7
		c-2.6,0-4.3-1.3-4.9-3.6c0.6-6.7,6.7-10.9,17.7-10.9c10.1,0,14.1,4.3,14.1,14.6v19.1c0,2.7,0.9,3.6,2.2,3.6c1.1,0,1.8-0.6,3.2-2.7
		L564.3,56.4z M532.5,24.6l-1.1,0.4L532.5,24.6z M546.6,39.1c-1.6,0.4-3.1,0.9-3.9,1.2c-5,2.1-7.6,5.4-7.6,10.6c0,4.3,2,6.2,5.3,6.2
		c1.9,0,3.5-0.9,6.2-3.3V39.1z"/>
	<path d="M604.5,24.1l-5,0.8l-13.8,36h-4.9l-14.3-36.2l-4.4-0.6V22h21.8v2.1l-5.1,0.6l8.9,25.4l8.5-25.3l-5.5-0.7V22h13.8V24.1z"/>
	<path d="M647.4,24.1l-4.8,0.6l-15.3,40.8C623.2,76.7,616.9,80,612.6,80c-4,0-7.7-2.3-7.9-5.5c0.6-3.2,3.3-4.5,6.1-4.5
		c2.8,0,4.9,1.6,6.7,3.9l1.1,1.5c2.7-2.3,4.7-5.6,6.7-10.7l-16.8-40l-4.1-0.4V22h21.7v2.1l-5.2,0.6l9.7,26.8l8.7-26.7l-6.5-0.7V22
		h14.6V24.1z"/>
</g>
</svg>
