<svg xmlns="http://www.w3.org/2000/svg" xmlns:xlink="http://www.w3.org/1999/xlink" width="498.72800000000007" height="52.2"><path d="M13.46 44.35L9.94 52.20L0 52.20L3.46 44.35L3.46 2.59L29.30 2.59L28.15 0.07L39.96 0.07L41.04 2.59L63.50 2.59L63.50 9.72L13.46 9.72L13.46 44.35ZM25.06 51.98L15.48 51.98L24.41 24.05L16.13 24.05L16.13 16.99L26.71 16.99L28.51 11.38L38.52 11.38L36.65 16.99L51.62 16.99L49.90 12.74L58.75 12.74L63.36 24.05L55.87 24.05L54.50 24.05L51.62 24.05L51.62 29.09L53.14 27.58L63.14 27.58L51.62 39.53L51.62 42.77Q51.62 43.70 52.27 44.35Q52.92 45 53.86 45L53.86 45L63.14 45L60.05 51.98L50.54 51.98Q48.24 51.98 46.44 50.87Q44.64 49.75 43.63 47.88L43.63 47.88L40.75 50.83L30.53 50.83L42.70 38.38L42.70 24.05L34.27 24.05L25.06 51.98Z"/><path d="M97.93 10.58L86.19 10.58L81.58 0.22L93.39 0.22L97.93 10.58ZM100.38 8.57L100.38 1.44L134.36 1.44L134.36 44.06Q134.36 45.72 133.75 47.16Q133.14 48.60 132.06 49.68Q130.98 50.76 129.54 51.37Q128.10 51.98 126.44 51.98L126.44 51.98L117.08 51.98L119.82 45.79L122.12 45.79Q123.06 45.79 123.70 45.14Q124.35 44.50 124.35 43.56L124.35 43.56L124.35 8.57L100.38 8.57ZM81.51 6.19L81.51 52.06L71.50 52.06L71.50 6.19L81.51 6.19Z"/><path d="M148.55 14.18L158.20 14.18L158.20 44.57L169.29 44.57L169.29 7.70L142.36 7.70L142.36 0.29L205.36 0.29L205.36 7.70L179.80 7.70L179.80 21.74L205.36 21.74L205.36 29.16L179.80 29.16L179.80 44.57L205.36 44.57L205.36 51.98L158.20 51.98L148.55 51.98L142.36 51.98L142.36 44.57L148.55 44.57L148.55 14.18Z"/><path d="M272.90 0.14L270.53 4.25L276.58 4.25L276.58 10.08L255.84 10.08L253.18 13.03L275.50 13.03L275.50 14.62L275.50 18.94L275.50 35.71Q275.50 37.37 274.85 38.81Q274.20 40.25 273.12 41.33Q272.04 42.41 270.60 43.02Q269.16 43.63 267.58 43.63L267.58 43.63L231.36 43.63L231.36 39.24L231.36 37.15L231.36 13.03L241.37 13.03L242.09 13.03L244.68 10.08L229.92 10.08L229.92 4.25L235.97 4.25L233.59 0.14L243.60 0.14L245.98 4.25L260.52 4.25L262.97 0.14L272.90 0.14ZM241.37 28.94L265.49 28.94L265.49 26.78L241.37 26.78L241.37 28.94ZM241.37 37.15L263.26 37.15Q264.19 37.15 264.84 36.50Q265.49 35.86 265.49 34.85L265.49 34.85L241.37 34.85L241.37 37.15ZM265.49 20.88L265.49 18.94L241.37 18.94L241.37 20.88L265.49 20.88ZM213.43 0.14L222.94 0.14L227.90 8.93L218.40 8.93L213.43 0.14ZM226.32 38.74L231.58 45.50L276.43 45.50L274.34 52.13L226.46 52.13L223.58 48.60L222.65 52.13L213.36 52.13L219.41 33.55L213.36 33.55L213.50 33.26L219.55 17.64L213.36 17.64L213.36 11.09L229.63 11.09L230.86 11.09L224.74 26.93L229.63 26.93L226.32 38.74Z"/><path d="M312.01 0.29L346.50 0.29L346.50 7.42L312.01 7.42L312.01 0.29ZM310.86 18.65L310.86 11.59L347.65 11.59L347.65 18.65L334.40 18.65L334.40 43.85Q334.40 45.50 333.75 46.98Q333.10 48.46 331.99 49.57Q330.87 50.69 329.40 51.34Q327.92 51.98 326.26 51.98L326.26 51.98L319.21 51.98L322.02 45.58L323.31 45.58Q324.32 45.58 324.97 44.93Q325.62 44.28 325.62 43.27L325.62 43.27L325.62 18.65L310.86 18.65ZM318.13 50.76L310.14 50.76L313.16 21.10L321.22 21.10L318.13 50.76ZM336.63 21.10L344.70 21.10L347.72 50.76L339.73 50.76L336.63 21.10ZM293.14 0.22L300.20 0.22L300.20 3.74L308.05 3.74L308.05 10.80L300.20 10.80L300.20 52.06L293.14 52.06L293.14 10.80L284.58 10.80L284.58 3.74L293.14 3.74L293.14 0.22ZM292.06 13.03L290.26 51.91L284.72 51.91L286.52 13.03L292.06 13.03ZM301.35 13.03L306.97 13.03L308.77 51.91L303.15 51.91L301.35 13.03Z"/><path d="M419.22 4.82L409.36 4.82L408.21 8.35L410.44 8.35Q411.95 8.35 413.68 9L413.68 9Q415.12 9.58 416.42 10.73L416.42 10.73Q417.06 11.23 417.57 11.88Q418.07 12.53 418.50 13.18L418.50 13.18Q418.86 13.97 419.04 14.72Q419.22 15.48 419.22 16.34L419.22 16.34L419.22 33.12L410.44 33.12L410.44 15.41Q410.44 14.47 409.86 13.82L409.86 13.82Q409.22 13.18 408.14 13.18L408.14 13.18L399.14 13.18L399.14 32.69L400.50 30.82L400.50 19.01L409.00 19.01L409.00 33.12L406.98 35.78L412.02 35.78L419.15 45L409.36 45L404.54 38.81L399.71 45L389.49 45L398.70 33.12L390.35 33.12L390.35 8.35L399.71 8.35L400.86 4.82L390.35 4.82L390.35 0L419.22 0L419.22 4.82ZM377.75 42.12L377.75 46.30L419.22 46.30L419.22 52.06L369.26 52.06L365.66 49.46L365.44 52.20L355.72 52.20L357.66 34.85L367.31 34.85L366.45 42.70L369.11 45.14L369.11 32.11L355.72 32.11L355.72 26.71L388.62 26.71L388.62 32.11L377.75 32.11L377.75 36.79L388.62 36.79L388.62 42.12L377.75 42.12ZM381.86 23.18L355.72 23.18L355.72 0L388.62 0L388.62 16.34Q388.62 17.86 388.05 19.01L388.05 19.01Q387.54 20.38 386.68 21.10L386.68 21.10Q385.74 22.03 384.52 22.61L384.52 22.61Q383.30 23.18 381.86 23.18L381.86 23.18ZM365.51 14.40L365.51 17.78L377.75 17.78Q378.90 17.78 378.90 16.63L378.90 16.63L378.90 14.40L365.51 14.40ZM365.51 6.05L365.51 9.07L378.90 9.07L378.90 6.05L365.51 6.05Z"/><path d="M473.30 0.14L473.30 4.97L490.51 4.97L490.51 12.02L473.30 12.02L473.30 37.87L478.34 37.87L478.34 44.93L473.30 44.93L473.30 52.13L463.51 52.13L463.51 44.93L458.47 44.93L458.47 37.87L463.51 37.87L463.51 12.02L446.30 12.02L446.30 4.97L463.51 4.97L463.51 0.14L473.30 0.14ZM458.76 15.48L455.30 52.13L446.30 52.13L449.83 15.48L458.76 15.48ZM487.27 15.48L490.73 52.13L481.80 52.13L478.27 15.48L487.27 15.48ZM433.34 52.06L433.34 19.58L427.22 19.58L435.29 0.07L444.94 0.07L439.97 12.17L442.63 12.17L442.63 52.06L433.34 52.06Z"/></svg>