<svg xmlns="http://www.w3.org/2000/svg" xmlns:xlink="http://www.w3.org/1999/xlink" width="576.0799999999999" height="77.04"><path d="M9.43 63.72C12.74 58.90 15.19 51.70 16.92 45.43L7.42 41.98C5.90 48.02 3.17 54.22 0 58.46ZM17.21 24.41L28.51 24.41L28.51 28.94L17.21 28.94ZM17.21 11.66L28.51 11.66L28.51 16.06L17.21 16.06ZM49.61 16.06L38.66 16.06L38.66 11.66L49.61 11.66ZM49.61 28.94L38.66 28.94L38.66 24.41L49.61 24.41ZM32.40 57.38C29.16 57.38 28.58 57.17 28.58 54.94L28.58 44.64C32.69 47.23 36.86 50.47 38.95 52.99L46.44 45.86C44.06 43.27 39.67 40.25 35.50 37.94L59.98 37.94L59.98 2.66L7.34 2.66L7.34 37.94L30.53 37.94L25.42 42.77C26.42 43.34 27.50 43.99 28.58 44.64L18 44.64L18 55.08C18 63.86 20.52 66.82 31.03 66.82L41.62 66.82C49.82 66.82 52.70 64.15 53.86 53.57C51.05 52.92 46.51 51.34 44.42 49.75C43.99 56.45 43.49 57.38 40.75 57.38ZM49.90 45.58C53.57 51.19 57.10 58.54 58.10 63.36L68.33 59.04C67.03 53.93 63.07 47.02 59.26 41.69Z"/><path d="M97.71 6.77C94.90 4.90 89.22 1.94 85.76 0.14L79.71 7.63C83.31 9.86 88.86 13.10 91.38 15.12ZM94.11 25.92C91.30 24.12 85.76 21.31 82.30 19.58L76.33 27.14C79.93 29.23 85.33 32.40 87.85 34.34ZM86.55 38.38C83.60 47.02 79.71 56.02 76.90 61.70L86.48 67.25C89.58 59.90 92.53 51.91 95.12 44.06ZM119.17 34.70L132.78 34.70L132.78 37.37L119.17 37.37ZM132.78 27.86L119.17 27.86L119.17 25.27L132.78 25.27ZM142.42 44.71L142.42 17.93L129.82 17.93C130.69 16.70 131.62 15.34 132.49 13.97L126.58 12.96L144.08 12.96L144.08 3.60L98.22 3.60L98.22 23.69C98.22 35.28 97.57 51.77 89.50 62.78C92.02 63.86 96.49 66.67 98.36 68.33C107.00 56.38 108.37 36.65 108.37 23.69L108.37 12.96L120.39 12.96C120.03 14.47 119.46 16.27 118.88 17.93L109.95 17.93L109.95 44.71L120.54 44.71L120.54 58.25C120.54 58.97 120.25 59.18 119.46 59.18C118.81 59.18 116.79 59.18 114.92 59.11C116.65 56.09 118.38 52.63 119.60 49.54L110.38 46.87C108.80 51.19 106.14 56.23 103.62 59.54C105.92 60.70 109.81 63.00 111.75 64.51C112.54 63.29 113.41 61.85 114.34 60.26C115.21 62.71 116.14 65.74 116.43 68.04C120.75 68.11 124.21 67.97 127.02 66.60C129.90 65.23 130.47 62.78 130.47 58.54L130.47 44.71ZM130.90 49.39C132.92 54.00 135.51 60.12 136.59 63.86L146.24 59.76C144.94 56.16 142.06 50.26 139.98 45.94Z"/><path d="M174.47 55.30C175.05 59.33 175.26 64.51 175.19 67.68L185.56 66.46C185.56 63.36 184.98 58.25 184.26 54.36ZM188.80 55.66C190.10 59.54 191.39 64.66 191.75 67.75L202.34 65.38C201.83 62.21 200.25 57.38 198.74 53.64ZM171.95 13.10C173.46 16.13 174.76 20.16 175.05 22.68L181.82 20.16C181.38 17.57 179.94 13.75 178.29 10.87ZM171.66 22.90L171.66 10.30L182.32 10.30L182.32 22.90ZM203.27 12.96L196.36 10.58C195.71 13.54 194.34 17.71 193.19 20.38L199.60 22.75C200.68 20.66 201.90 17.78 203.27 14.76L203.27 22.90L192.83 22.90L192.83 10.30L203.27 10.30ZM220.12 52.49L220.12 43.42L192.83 43.42L192.83 41.40L214.65 41.40L214.65 33.34L192.83 33.34L192.83 31.25L213.86 31.25L213.86 1.94L161.73 1.94L161.73 31.25L182.32 31.25L182.32 33.34L160.79 33.34L160.79 41.40L182.32 41.40L182.32 43.42L155.25 43.42L155.25 52.49L161.51 52.49C159.93 56.95 157.12 61.56 154.24 64.08L164.39 68.40C167.63 64.94 170.51 59.62 172.02 54.65L163.17 52.49L211.05 52.49L202.77 55.15C205.72 59.26 209.32 64.94 210.69 68.47L221.27 64.87C219.62 61.34 216.02 56.30 212.99 52.49Z"/><path d="M279.38 47.38L279.38 32.18C281.33 37.58 283.56 42.77 286.08 47.38ZM262.68 47.38C265.06 43.06 267.29 38.23 269.16 33.19L269.16 47.38ZM298.39 21.53L298.39 11.59L279.38 11.59L279.38 0.14L269.16 0.14L269.16 11.59L252.02 11.59L252.02 21.53L264.70 21.53C260.95 32.26 254.98 42.91 248.21 49.54L248.21 16.13C250.30 11.74 252.10 7.34 253.61 3.02L243.74 0C240.58 9.86 235.10 19.80 229.27 26.14C231.07 28.73 233.88 34.63 234.82 37.15C235.97 35.86 237.12 34.42 238.27 32.90L238.27 68.04L248.21 68.04L248.21 50.62C250.51 52.49 253.54 55.80 255.12 58.03C257.21 55.73 259.22 53.06 261.02 50.11L261.02 56.66L269.16 56.66L269.16 67.54L279.38 67.54L279.38 56.66L287.95 56.66L287.95 50.69C289.54 53.35 291.19 55.73 292.92 57.82C294.72 55.08 298.25 51.48 300.70 49.68C294.07 42.98 287.95 32.11 284.14 21.53Z"/><path d="M308.70 44.93L329.07 44.93L329.07 35.93L308.70 35.93Z"/><path d="M337.07 61.27L349.96 61.27L349.96 39.24L367.60 39.24L367.60 61.27L380.34 61.27L380.34 7.70L367.60 7.70L367.60 28.08L349.96 28.08L349.96 7.70L337.07 7.70Z"/><path d="M409.15 62.28C413.98 62.28 419.59 60.62 423.84 57.60L419.59 49.90C416.64 51.62 413.90 52.49 410.95 52.49C405.77 52.49 401.88 50.18 400.73 44.57L424.78 44.57C425.06 43.63 425.35 41.33 425.35 39.10C425.35 27.86 419.59 19.30 407.78 19.30C397.85 19.30 388.34 27.50 388.34 40.82C388.34 54.36 397.42 62.28 409.15 62.28ZM400.51 36.22C401.38 31.32 404.47 29.09 408 29.09C412.68 29.09 414.48 32.11 414.48 36.22Z"/><path d="M445.52 62.28C450.06 62.28 453.87 60.19 457.26 57.17L457.54 57.17L458.48 61.27L468.92 61.27L468.92 38.02C468.92 25.20 462.94 19.30 452.36 19.30C445.95 19.30 440.12 21.46 434.72 24.70L439.18 33.12C443.29 30.82 446.67 29.52 449.91 29.52C454.09 29.52 455.82 31.46 456.10 34.78C440.12 36.50 433.35 41.18 433.35 49.82C433.35 56.66 437.96 62.28 445.52 62.28ZM449.91 52.34C447.25 52.34 445.52 51.19 445.52 48.82C445.52 45.94 448.11 43.63 456.10 42.55L456.10 49.10C454.23 51.12 452.50 52.34 449.91 52.34Z"/><path d="M490.53 61.27L505.36 61.27L518.61 20.30L506.30 20.30L501.26 39.17C500.25 43.20 499.17 47.45 498.23 51.77L497.87 51.77C496.79 47.45 495.78 43.20 494.78 39.17L489.81 20.30L476.92 20.30Z"/><path d="M535.90 77.04C545.62 77.04 550.01 71.86 554.04 61.34L568.08 20.30L555.91 20.30L551.16 37.30C550.22 41.18 549.29 45 548.50 48.89L548.14 48.89C547.06 44.86 546.19 41.04 544.97 37.30L539.50 20.30L526.61 20.30L542.30 60.05L541.73 62.14C540.79 65.02 538.78 67.03 534.89 67.03C533.95 67.03 532.87 66.67 532.15 66.53L529.85 76.25C531.58 76.75 533.23 77.04 535.90 77.04Z"/></svg>