<svg id="图层_1" data-name="图层 1" xmlns="http://www.w3.org/2000/svg" viewBox="0 0 161.75 20"><title>字体svg的黑色</title><path d="M17.7,12a1.07,1.07,0,0,1-.79.33H10.34l-.43,5a3.27,3.27,0,0,1-.28,1l-.43,1a1,1,0,0,1-1,.64H6.77a.79.79,0,0,1-.49-.14.45.45,0,0,1-.17-.37.85.85,0,0,1,.09-.38l.71-1.63.46-5.15H.94A.92.92,0,0,1,0,11.37a1,1,0,0,1,.34-.77,1.09,1.09,0,0,1,.78-.32l6.75,0,4.44-2.58H1.85a.9.9,0,0,1-.66-.27.9.9,0,0,1-.28-.67,1.05,1.05,0,0,1,.35-.79A1.1,1.1,0,0,1,2,5.61H15.56a.85.85,0,0,1,.87.57l.32.75a.84.84,0,0,1,.07.35.88.88,0,0,1-.5.75l-3.83,2.22,4.6,0a.9.9,0,0,1,.68.26.89.89,0,0,1,.26.65A1.07,1.07,0,0,1,17.7,12Zm-14-7.16A.94.94,0,0,1,3.09,5H1.69a.68.68,0,0,1-.57-.22A.82.82,0,0,1,1,4.21l.16-1.94a.9.9,0,0,1,.28-.6A.84.84,0,0,1,2,1.46H8.28V1.4A.88.88,0,0,1,9.06.55l1.42-.3a1.78,1.78,0,0,1,.32,0,.54.54,0,0,1,.4.15.48.48,0,0,1,.13.4l-.07.7h6.5a.72.72,0,0,1,.57.22.85.85,0,0,1,.16.59l-.16,1.94a.83.83,0,0,1-.26.58.88.88,0,0,1-.63.22H16a.8.8,0,0,1-.57-.19.65.65,0,0,1-.18-.56l.06-.74H4L4,4.26A.79.79,0,0,1,3.71,4.82Z"/><path d="M22.44,6.52a1.08,1.08,0,0,1,.74-.3H29a.92.92,0,0,1,.66.28.9.9,0,0,1,.27.66,1,1,0,0,1-.34.79,1.1,1.1,0,0,1-.78.33H26.57l-2.08,9.41h2V10.85a.82.82,0,0,1,.22-.61.9.9,0,0,1,.62-.22H28a.71.71,0,0,1,.77.76l0,8.12a.78.78,0,0,1-.2.63.82.82,0,0,1-.63.22H22.56a.68.68,0,0,1-.57-.22.77.77,0,0,1-.16-.58l.11-1.26L24,8.28H23A.91.91,0,0,1,22.31,8a1,1,0,0,1-.25-.74A1.11,1.11,0,0,1,22.44,6.52Zm6.94-3.21a1.1,1.1,0,0,1-.78.33H24.12a.87.87,0,0,1-.66-.28.87.87,0,0,1-.28-.66,1.06,1.06,0,0,1,.34-.79,1.1,1.1,0,0,1,.78-.33h4.49a.93.93,0,0,1,.66.26.92.92,0,0,1,.28.68A1.07,1.07,0,0,1,29.38,3.31Zm9.45,14.77a.87.87,0,0,1,.28.66A1.16,1.16,0,0,1,38,19.86h-3.5a.75.75,0,0,1-.58-.21.85.85,0,0,1-.16-.59l.6-6.82-2.57,7a.89.89,0,0,1-.93.68H29.79a.73.73,0,0,1-.49-.14.53.53,0,0,1-.17-.4.91.91,0,0,1,.07-.35l2.95-8.17-1.4,0a.78.78,0,0,1-.57-.22.76.76,0,0,1-.16-.61l.69-7.66A.85.85,0,0,1,31,1.84a.88.88,0,0,1,.62-.21h1.1l.59-1a1.05,1.05,0,0,1,1-.6h1.19a.82.82,0,0,1,.5.13.38.38,0,0,1,.18.33A.94.94,0,0,1,36,.82l-.46.81,4.14,0a.68.68,0,0,1,.57.22.75.75,0,0,1,.16.58l-.66,7.69a1,1,0,0,1-.27.61.87.87,0,0,1-.6.22l-4,0-.2.53h1.57a.72.72,0,0,1,.58.22.82.82,0,0,1,.16.58l-.48,5.58h1.69A.87.87,0,0,1,38.83,18.08ZM32.7,8.92h1l.16-1.73h-1ZM33,5.2h1l.14-1.63h-1Zm4.46,2h-1l-.16,1.73h1Zm-.73-3.62L36.59,5.2h1l.16-1.63ZM38.66,12a.46.46,0,0,1,.1.41l-.06.44c.29,0,.42.26.41.78L39,16.09a1.07,1.07,0,0,1-.35.72,1,1,0,0,1-.73.31.86.86,0,0,1-.65-.27.77.77,0,0,1-.24-.65l.68-3.89a.67.67,0,0,1,.21-.33.5.5,0,0,1,.34-.15A.48.48,0,0,1,38.66,12ZM38.1,16.2h.34l.07-2.38Z"/><path d="M45.49,18.77a.71.71,0,0,1-.8.77H43.57a.7.7,0,0,1-.78-.8l.21-4.8V3.36h-.37a1,1,0,0,1-.72-.3,1.06,1.06,0,0,1-.31-.75,1.06,1.06,0,0,1,1-1h2.29a.77.77,0,0,1,.59.21.79.79,0,0,1,.21.59V13.87Z"/><path d="M56.36,18.81a.75.75,0,0,1-.83.73H50.25a.77.77,0,0,1-.57-.2.81.81,0,0,1-.21-.6l0-2.61v-14a.79.79,0,0,1,.22-.59.82.82,0,0,1,.59-.21h4.11a1.06,1.06,0,0,1,.75.31,1,1,0,0,1,.31.72,1,1,0,0,1-.31.75,1.05,1.05,0,0,1-.75.3H52.12V8.28l3.71,0a.85.85,0,0,1,.6.2.85.85,0,0,1,.2.6V17Zm-2.45-2V10.37H52.12v5.69l0,1.4h1.72Z"/><path d="M61.89,18.77a.71.71,0,0,1-.8.77H60a.7.7,0,0,1-.78-.8l.23-4.8V3.36H56.77a1,1,0,0,1-1.05-1A1,1,0,0,1,56,1.59a1,1,0,0,1,.74-.31H61.3a.82.82,0,0,1,.61.22.79.79,0,0,1,.21.58V13.87Z"/><path d="M69.63,11.85h9.63a.78.78,0,0,1,.59.22.8.8,0,0,1,.17.59l-.44,4.78a2.84,2.84,0,0,1-.22,1l-.39.92A.93.93,0,0,1,78,20H76.56c-.44,0-.66-.18-.66-.53a.85.85,0,0,1,.09-.38l.62-1.52.32-3.66H66.86a.71.71,0,0,1-.57-.21.8.8,0,0,1-.16-.59l.07-.75a2.49,2.49,0,0,1,.27-1l.92-1.67h-2a.91.91,0,0,1-.71-.3.94.94,0,0,1-.25-.73,1.11,1.11,0,0,1,.38-.73,1.08,1.08,0,0,1,.74-.3h15a.91.91,0,0,1,.66.28.9.9,0,0,1,.27.66,1,1,0,0,1-.34.79,1.1,1.1,0,0,1-.78.33H70.77ZM66.77.55a.84.84,0,0,1,.59-.21H79.9a.75.75,0,0,1,.58.22.83.83,0,0,1,.16.58l-.41,4.7a1,1,0,0,1-.28.59.84.84,0,0,1-.59.21H66.82a.74.74,0,0,1-.58-.22.83.83,0,0,1-.16-.58l.41-4.7A.92.92,0,0,1,66.77.55Zm2.4,4h8.19l.19-2.18H69.36Z"/><path d="M90,7.85a.8.8,0,0,1,.2.59v.81a.8.8,0,0,1-.2.58.82.82,0,0,1-.6.22H82.24a.8.8,0,0,1-.58-.22.78.78,0,0,1-.22-.58V8.44a.77.77,0,0,1,.22-.59.79.79,0,0,1,.58-.21h7.14A.81.81,0,0,1,90,7.85Z"/><path d="M97.46,19.18a.9.9,0,0,1-.29.6.84.84,0,0,1-.6.22H95.22a.71.71,0,0,1-.57-.22.66.66,0,0,1-.16-.6l1-11.35h-.16q-.66,0-.66-.51a.92.92,0,0,1,.09-.39l1.05-2.67v0L97.21.71a.93.93,0,0,1,.94-.66h1.42a.79.79,0,0,1,.49.13.48.48,0,0,1,.17.39.86.86,0,0,1-.09.39l-1.4,3.48ZM111.85,6.91a1.08,1.08,0,0,1-.71.32l-.32,3.71a.79.79,0,0,1-.26.58.88.88,0,0,1-.63.22H104.6l-1.51,7.51a1,1,0,0,1-.3.54.84.84,0,0,1-.59.21h-1.4c-.47,0-.71-.21-.71-.64a.58.58,0,0,1,0-.21l1.48-7.41h-.32a.91.91,0,0,1-.7-.31.89.89,0,0,1-.24-.72,1,1,0,0,1,.37-.73,1.12,1.12,0,0,1,.75-.3H102l.5-2.45h-2.38a.94.94,0,0,1-.94-.94,1.16,1.16,0,0,1,1.12-1.12h2.59l.5-2.42h-1.37a.87.87,0,0,1-.66-.28.87.87,0,0,1-.28-.66,1.07,1.07,0,0,1,.34-.77,1.07,1.07,0,0,1,.76-.33h8.67a.77.77,0,0,1,.57.2.77.77,0,0,1,.19.6l-.32,3.66a.93.93,0,0,1,.65.32,1,1,0,0,1,.24.71A1.08,1.08,0,0,1,111.85,6.91Zm-6.34.32L105,9.68H108l.21-2.45Zm2.84-2.06.21-2.42h-2.15l-.48,2.42Z"/><path d="M128.81,19.15l-4-12-5.33,12a1,1,0,0,1-1,.62h-1.47c-.44,0-.66-.17-.66-.5a1.06,1.06,0,0,1,.09-.42L124.6.69a.94.94,0,0,1,1-.62h1.49c.43,0,.64.17.64.5a1,1,0,0,1-.09.41l-2.38,5.34h1.87a.82.82,0,0,1,.85.59l4,11.9a2.19,2.19,0,0,1,0,.3.58.58,0,0,1-.21.47.86.86,0,0,1-.55.17h-1.51A.84.84,0,0,1,128.81,19.15Z"/><path d="M139.34,15.79h1.37a.78.78,0,0,1,.48.14.46.46,0,0,1,.18.39,1.11,1.11,0,0,1-.06.34l-.94,2.65a.92.92,0,0,1-.94.67h-1.37a.84.84,0,0,1-.49-.14.46.46,0,0,1-.18-.39,1.09,1.09,0,0,1,.07-.34l.92-2.66A.93.93,0,0,1,139.34,15.79Zm15.44-2.59a.85.85,0,0,1,.23.71,1,1,0,0,1-.34.74,1.11,1.11,0,0,1-.76.29H138.54a.93.93,0,0,1-.67-.26.9.9,0,0,1-.27-.68,1,1,0,0,1,.34-.76,1.1,1.1,0,0,1,.78-.33h6.18l.09-1.1H139.5a.94.94,0,0,1-.94-.94,1,1,0,0,1,.34-.79,1.1,1.1,0,0,1,.78-.33h5.49l.09-1.1h-5.85a.78.78,0,0,1-.58-.21.76.76,0,0,1-.18-.59l.57-6.39a.94.94,0,0,1,.28-.59.84.84,0,0,1,.59-.21h14.76a.72.72,0,0,1,.57.22.75.75,0,0,1,.16.58L155,7.85a.82.82,0,0,1-.25.58.84.84,0,0,1-.62.22h-5.9l-.09,1.1h5.47a.93.93,0,0,1,.71.3,1,1,0,0,1,.25.73,1.17,1.17,0,0,1-1.15,1H148l-.11,1.1h6.25A.91.91,0,0,1,154.78,13.2Zm-9-10.5h-3.71l-.34,3.89h3.71Zm-.32,13.82.18,2.61a.79.79,0,0,1-.19.63.82.82,0,0,1-.61.22h-1.3a.71.71,0,0,1-.78-.73l-.16-2.61a.72.72,0,0,1,.8-.85h1.31A.67.67,0,0,1,145.47,16.52Zm-.9-10.75a1,1,0,0,1-.75.36.89.89,0,0,1-.58-.2A.85.85,0,0,1,143,5.4l-.13-1a1,1,0,0,1,.26-.77.91.91,0,0,1,.74-.37.87.87,0,0,1,.59.21.79.79,0,0,1,.28.52l.14,1A1,1,0,0,1,144.57,5.77Zm5.23,10.75.16,2.61a.79.79,0,0,1-.2.63.8.8,0,0,1-.61.22h-1.3a.72.72,0,0,1-.78-.73l-.16-2.61a.74.74,0,0,1,.8-.85H149A.71.71,0,0,1,149.8,16.52ZM148.74,2.7l-.32,3.89h3.73l.35-3.89Zm.79,3.18a.84.84,0,0,1-.24-.59,1.33,1.33,0,0,1,.05-.3l.32-1a1,1,0,0,1,.38-.52.91.91,0,0,1,.6-.21.79.79,0,0,1,.61.25.85.85,0,0,1,.24.6,1.35,1.35,0,0,1-.05.29l-.3,1a1.11,1.11,0,0,1-.38.53,1.07,1.07,0,0,1-.62.2A.79.79,0,0,1,149.53,5.88Zm4.57,10.64.16,2.61a.79.79,0,0,1-.2.63.78.78,0,0,1-.6.22h-1.35a.71.71,0,0,1-.78-.73l-.16-2.61a.77.77,0,0,1,.18-.63.8.8,0,0,1,.62-.22h1.35A.71.71,0,0,1,154.1,16.52Z"/></svg>