<svg id="图层_1" data-name="图层 1" xmlns="http://www.w3.org/2000/svg" width="146.61" height="20" viewBox="0 0 146.61 20">
  <title>0411</title>
  <g>
    <path d="M10.73,3.13c.55.12.94.21,1.18.28a11.59,11.59,0,0,1,3.28,2,1.45,1.45,0,0,1,.47.83c0,.2-.68.39-2.05.58A11.9,11.9,0,0,0,9.82,8.1,12.62,12.62,0,0,1,8.2,9a36.61,36.61,0,0,0,3.2-2.48c1-1,1.52-1.54,1.53-1.75a5.2,5.2,0,0,0-1.83-1l-.4-.33h-.25A10.87,10.87,0,0,0,6.09,4.81c-1.44.74-2.62,1.41-3.56,2A.59.59,0,0,1,2.21,7v.23a17.43,17.43,0,0,0-.43,2.6c.22.19.32.35.32.48-.16.3-.32.45-.47.45H1.5c-.36,0-.83-.32-1.4-.95A.59.59,0,0,0,0,9.55C.13,8.26.3,7.11.5,6.09V5c-.22-.24-.32-.4-.32-.5h0a.34.34,0,0,0,.2.12l.23,0c1,.45,1.58,1,1.58,1.55v.53h0a28,28,0,0,1,4-2.31,12,12,0,0,1,2.38-.88,9.6,9.6,0,0,1,1.95-.3s0-.05.1-.05Zm-1,3.64v.17A26.71,26.71,0,0,1,6.54,10.3c-.28.35-.74.87-1.38,1.55q4.93-2.58,6.29-2.6a7.25,7.25,0,0,0,1.11-.53l.25,0H13c.49,0,1.13.41,1.93,1.25a1,1,0,0,1,.08.33c0,.13-.42.2-1.26.22a43.46,43.46,0,0,0-7.09,1.73s0,0-.12,0v0a4.85,4.85,0,0,1,2.5,1.62,1.49,1.49,0,0,1,.23.48c0,.05-.09.18-.28.38a1.74,1.74,0,0,1-.5,1l-1.35,1.5c-.44.55-1.11,1.31-2,2.26a.51.51,0,0,0-.23.45H4.79c-.37,0-.81-.31-1.33-.93,0-.08-.38-.31-1.13-.67-.05,0-.07,0-.07-.08h0a12.55,12.55,0,0,0,1.53.6h0A12.22,12.22,0,0,0,5.21,17L6.39,15a3.5,3.5,0,0,0,.33-1.05h0a7.69,7.69,0,0,0-1.85-.85C3.58,14,2.89,14.5,2.76,14.64a3.4,3.4,0,0,1-.73.77H1.68a3.09,3.09,0,0,1-1.23-.57,1.33,1.33,0,0,1-.3-.08v0c.22-.05.33-.12.33-.22A4.25,4.25,0,0,0,2,13.61a19.92,19.92,0,0,0,2.51-1.4,28.22,28.22,0,0,0,3-4.59L5.79,9.1a2.12,2.12,0,0,1-.93.47,3,3,0,0,1-1.25-.52c-.34-.15-.5-.31-.5-.48s.11-.35.32-.35a5.28,5.28,0,0,1,1.36-.85l1.4-1.08a2.76,2.76,0,0,1,1.68-.83H8.1A3,3,0,0,1,9.77,6.77ZM2.16,18.27a0,0,0,0,1,0,.05h0s-.06,0-.06-.05ZM5.86,0a1.2,1.2,0,0,1,.56.23A.66.66,0,0,1,6.77.12,3.49,3.49,0,0,1,9.2,1.38a1.43,1.43,0,0,1,.42.8v.15c0,.22-.35.35-1,.4A11,11,0,0,0,4.14,5.16h0A31.5,31.5,0,0,0,6.54,3,1.88,1.88,0,0,0,7,1.85v-.4c0-.16-.21-.36-.62-.57A2.52,2.52,0,0,1,5.76.15V0ZM6,12.31H6a24.51,24.51,0,0,0,4.24-2.21h0A26.3,26.3,0,0,0,6,12.28Z"/>
    <path d="M32,4a.21.21,0,0,1,.12,0,.28.28,0,0,1,.13,0h.05C33,4,33.93,4.54,35,5.66a1.3,1.3,0,0,1,.27.66c0,.06-.12.18-.37.35a14.55,14.55,0,0,1-2.56,2.5l-2,1.76a3.17,3.17,0,0,0-.71.5c.29.18.43.6.43,1.25a10.91,10.91,0,0,1-1.28,2,13.31,13.31,0,0,0-1,1.68.82.82,0,0,0,.28-.05,7.11,7.11,0,0,0,.9.13c.87,0,1.36,0,1.48,0a9.51,9.51,0,0,0,2.21-2.66s-.48.47-1.38,1.4a1,1,0,0,1-.5.13H30.4a.93.93,0,0,1-.8-.58v-.05a3.13,3.13,0,0,0,.5-.88,8.84,8.84,0,0,0,1.38-2.28,1.18,1.18,0,0,0,.07-.37v0a1.18,1.18,0,0,1-.35-.6l.1-.05c.91.47,1.36.88,1.36,1.23a2.46,2.46,0,0,1-.73,1.43v0a6.12,6.12,0,0,1,1.25-.92,1.31,1.31,0,0,1-.22-.56c0-.06.15-.14.45-.22h0c.1,0,.21.08.33.25a2.42,2.42,0,0,1,1.33,1.23.3.3,0,0,1,0,.15v0c0,.15-.42.47-1.26,1,0,0-.61.41-1.83,1.18a13.25,13.25,0,0,0-1.52,1.18h1a4.22,4.22,0,0,0,3-1.63,15.74,15.74,0,0,0,1.83-1.93,1.53,1.53,0,0,0,.3-.88c0-.48-.55-1.39-1.63-2.71v0c1.75,1.82,2.63,2.94,2.63,3.36,0,0,.1.26.15.77,0,.81-.8,1.87-2.41,3.19a3.79,3.79,0,0,1-2.15,1.07v-.05l-.08.05h-2.3a3.17,3.17,0,0,1-.58-.05l-.07.05-.33-.05h0a10.56,10.56,0,0,1-2-.57c-.63-.27-.95-.52-.95-.75a5.23,5.23,0,0,1,.53-1A15.45,15.45,0,0,0,29,12v-.2a4.31,4.31,0,0,1-1,.78,23.39,23.39,0,0,1-2.23,3.58,19.21,19.21,0,0,1-1.9,2.16,5.8,5.8,0,0,1-1.93,1.2V19.5c.65-.25,1.6-1.24,2.83-3,.52-.68,1-1.37,1.41-2l-.58-.25a6.7,6.7,0,0,0-.7-.46,1.38,1.38,0,0,0-.28-.32c-.12-.15-.18-.23-.2-.23,0,.45-.48,1.21-1.43,2.26a3.74,3.74,0,0,1-1.05.85h-.15c-.39-.1-.58-.25-.58-.45v-.05a6.55,6.55,0,0,1,.75-2l.73-1.68a.59.59,0,0,0,.1-.28h-.05a2.29,2.29,0,0,1-1.58,1c-.47,0-1-.37-1.58-1.11l-.1-.15c0-.26.08-.4.23-.4a1.13,1.13,0,0,0,.22-.05v.05c-.18,0-.27.09-.27.13v.1a.57.57,0,0,0,.38.2q.54,0,3.15-2c.29-.27.5-.4.65-.4h0c.28,0,.6.22,1,.67a.25.25,0,0,1,.08.18A12.84,12.84,0,0,1,24,11.83c-.4.77-.77,1.42-1.1,1.95a8.16,8.16,0,0,1-.55,1.16,7,7,0,0,0,1.75-2.18s0,0,0,0-.07,0-.07-.05v0s0-.06.1-.07h0a4.19,4.19,0,0,1,1.28.55,3.81,3.81,0,0,1,1,.93,8.69,8.69,0,0,0,.78-1.58c-.47-.25-.7-.51-.7-.76l.55-.3q1.5-1.62,1.5-2a1.13,1.13,0,0,0,0-.25,1.88,1.88,0,0,1-1.06-.8Q27,8.32,27,8.22v0s.14-.1.4-.16a.68.68,0,0,0,.33.11A2.61,2.61,0,0,0,29,7.54V6.67A3,3,0,0,0,28.9,6h0a2.8,2.8,0,0,1-1.31.83c-.7-.11-1.05-.32-1.05-.6v0s0-.07.1-.1h.18a5.53,5.53,0,0,0,1.75-1c0-.09,0-.13.05-.13l.08,0a3.63,3.63,0,0,1,2-.9s.06,0,.18-.08ZM29.27,1.45A1.11,1.11,0,0,1,29.6,2v0c0,.41-1.1,1.7-3.28,3.89l-.76.8v0A2.08,2.08,0,0,1,27,8.7v2.18a.35.35,0,0,1-.15.32h-.13a2.38,2.38,0,0,1-1.4-.85.85.85,0,0,1-.23-.53V7.24l-.5.45v0c.12-.18.24-.37.38-.55v0s-.09-.07-.23-.22c-1.92,2-2.91,3-3,3a3.23,3.23,0,0,1-.95.66A8.49,8.49,0,0,0,23.06,8a1,1,0,0,0,.3-.5v0h-.15a4,4,0,0,1-2-1.2,5.49,5.49,0,0,1-.5-.86.31.31,0,0,1,.15-.07,2.16,2.16,0,0,1,.7.3h.15A4.77,4.77,0,0,0,23.13,5a2.47,2.47,0,0,1,1.11-.38h0a1.75,1.75,0,0,1,1.35.9.17.17,0,0,1,.05.13v0a2.35,2.35,0,0,0-.6.81s0,0,0,.12a.75.75,0,0,0,.35.08q2.47-4,2.55-5.34V1.2a1.28,1.28,0,0,0-.35-.6V.48l.1,0A3.92,3.92,0,0,1,29.27,1.45Zm.63,5.67s0,0,0,0l.58,0q.3,0,.78.6a7.07,7.07,0,0,0,1.05-2.35,4.54,4.54,0,0,0-1-.65h0a3.48,3.48,0,0,0-1.93.95A2.09,2.09,0,0,1,29.9,7.12Zm.7,1c-.77.6-1.15,1.09-1.15,1.45h0a1.16,1.16,0,0,0,.5-.4c.26,0,.48-.21.68-.62a5.5,5.5,0,0,0,.5-.71h0S31,7.92,30.6,8.07Z"/>
    <path d="M41.47,3.91H48l.13.12-.5,1.11H42.07l-.73,4.71a11.09,11.09,0,0,1,2.84-.8,4.23,4.23,0,0,1,4.48,4.28c0,3.66-3.81,5.82-6.29,5.79-1.4,0-2.66-.67-2.66-1.3a1.17,1.17,0,0,1,.88-.93.46.46,0,0,1,.25.08,3.8,3.8,0,0,0,6.47-2.71c0-2.48-1.2-4.06-4.14-4.06a7.66,7.66,0,0,0-2.58.4Z"/>
    <path d="M49.66,4.89a4.28,4.28,0,0,1,3-1.26,3.13,3.13,0,0,1,3.44,3c0,1.13-.93,1.88-2.54,2.71V9.4A3.94,3.94,0,0,1,57,13.23c0,4.06-4.56,5.92-6.34,5.92-1.48,0-2.55-.9-2.55-1.41a1.25,1.25,0,0,1,.82-.82.8.8,0,0,1,.43.15,3.38,3.38,0,0,0,2.68.95,3.52,3.52,0,0,0,3.56-3.89,3.33,3.33,0,0,0-3.48-3.68,4.93,4.93,0,0,0-1.83.4l-.18-.4c2.63-.88,4.51-1.88,4.51-3.56a2.14,2.14,0,0,0-2.4-2.2,3.54,3.54,0,0,0-3.11,2l-.4-.25Z"/>
    <path d="M71.79.35c.19,0,.38.18.58.55.85.75,1.28,1.23,1.28,1.43v0a26.9,26.9,0,0,1-2.33,1.48,6.91,6.91,0,0,0-.65.53h0a1.32,1.32,0,0,1,.57-.2c.35,0,.75.27,1.21.82v.18A14.85,14.85,0,0,1,70,6.72a16.52,16.52,0,0,1-2.1,1.17v0h0Q73.71,5,74.65,5s.07-.11.2-.23h.08a1.2,1.2,0,0,1,.85.58v.17a4.24,4.24,0,0,1-1.48.3q-2,.78-2.16.78a8,8,0,0,1,1.46-.75v0h0A35.4,35.4,0,0,0,69.36,8c.34.22.5.41.5.58a10.14,10.14,0,0,1-2.08,3.51v0q3.43-2.93,4.29-3c0-.05.14-.08.43-.1h0c.2,0,.38.14.53.43,1.73,1.39,2.65,2.3,2.73,2.76v.05c0,.55-.51,1.37-1.53,2.45A21.18,21.18,0,0,1,72,17.27a15.36,15.36,0,0,1-2.28,1.88l-.15.42c0,.05,0,.08-.07.08h-.18c-.42,0-.92-.35-1.53-1a1.23,1.23,0,0,1-.1-.3v-.18a3.19,3.19,0,0,1,.53-1.1v-.23a7.54,7.54,0,0,0-.68-2.08,17.34,17.34,0,0,1,1.23,2.56,3.93,3.93,0,0,1,.43.85h.07a8.91,8.91,0,0,0,1.41-1.33,12.57,12.57,0,0,0,2.18-3.21,5.39,5.39,0,0,0,.85-2.1V11.4c0-.3-.31-.76-.93-1.4-.1-.2-.17-.3-.22-.3a10.47,10.47,0,0,0-2.38,2,16.36,16.36,0,0,1-1.36,1.48c-.1.13-.51.6-1.23,1.4l0,.15a.27.27,0,0,0-.17-.07H67a2.4,2.4,0,0,1-.93-.38s0,.05,0,.05H66s-.08-.1-.1-.3a.62.62,0,0,1-.28-.43v-.07c0-.1.23-.16.68-.18a1.44,1.44,0,0,0,.5-.45c.15,0,.53-.57,1.13-1.6a6.48,6.48,0,0,0,1-2.81V8.32a29.64,29.64,0,0,0-4.81,3.11,3.86,3.86,0,0,1-1.13.32,3.18,3.18,0,0,1-1.63-.95c-.47-.08-.7-.16-.7-.25a1.72,1.72,0,0,1,.5-.12l.68,0H62q1.2,0,5.49-2.38a8.48,8.48,0,0,1,1.43-1V7a7.19,7.19,0,0,1-1.53-.9A2.24,2.24,0,0,1,66.23,5c-.1-.38-.23-1.06-.4-2a1,1,0,0,1-.23-.52c0-.07.1-.15.28-.23a4.18,4.18,0,0,1,1.2.68s.08.09.23.17h0a26.92,26.92,0,0,1,3.06-2A12.21,12.21,0,0,0,71.77.35ZM68.16,5.71h.07a20.14,20.14,0,0,0,3.29-2.88,3.68,3.68,0,0,0,.73-1.13L71.82.93h0a18,18,0,0,0-4.16,2.6A7.46,7.46,0,0,1,68.16,5.71Zm4,.93v0h-.07v0Z"/>
    <path d="M78.06,12.88h6v1.18h-6Z"/>
    <path d="M99,6.79v0c0,.28-.53,1-1.58,2a47.58,47.58,0,0,0-2.81,4.31v.07h.05a2.1,2.1,0,0,0,.75-.65h.15a2.38,2.38,0,0,1,.66.23s0-.05.05-.05a7.31,7.31,0,0,1,.92.92v.15q0,.18-.15.18a1.21,1.21,0,0,0-.27,0q-.18,0-1,.9a2.27,2.27,0,0,0-.45.63,6.88,6.88,0,0,0-1,1.5c0,.05-.31.49-.78,1.31l-.15.05c-.51,0-1.14-.48-1.88-1.43-.25-.2-.37-.37-.37-.5v-.1a1.1,1.1,0,0,1,.6-.48A19.31,19.31,0,0,0,92.85,14c.25-.52.87-1.6,1.88-3.26a36.79,36.79,0,0,1,2.13-3.08v0c-1.37.83-3.35,2.11-5.92,3.83a4,4,0,0,1-1.8,1,1.71,1.71,0,0,1-1.51-.85v-.05c.05-.08.3-.16.73-.23L90,10.25q7.76-4.38,8-4.39Q99,6.22,99,6.79Zm-.48-4.33v0a4.21,4.21,0,0,1-1.65,1.55C95.44,5.13,94,6.12,92.62,7h-.05A13.05,13.05,0,0,0,94.7,5s0,0,0,0a4.4,4.4,0,0,1-2.23-1.25,1.39,1.39,0,0,1-.3-.58V3h.25l.17,0,.78.15A13,13,0,0,0,95.65,2a5,5,0,0,1,1.83-.38A1.76,1.76,0,0,1,98.51,2.46ZM101,12.86a5,5,0,0,1,1.43,1.73,2.43,2.43,0,0,1,.67,1.2c0,.13-.12.23-.37.28a5.09,5.09,0,0,1-2.91-1.63A7,7,0,0,1,99,13.23a4.49,4.49,0,0,1-.67-.6l0-.05a2.54,2.54,0,0,1-.43-.6l-.07,0s-.08-.06-.15-.18a.44.44,0,0,1,0-.1,1.29,1.29,0,0,1-.1-.35v0c0-.19.12-.28.35-.28C98.57,11.1,99.6,11.69,101,12.86Z"/>
    <path d="M116.36,1.18a1.08,1.08,0,0,1,.48.15,2,2,0,0,1,.52.37l.17.18c0,.07,0,.11,0,.14s0,0,0,.07-.1.05-.07.07,0,0-.07,0h-.35a.3.3,0,0,0-.15,0,2.9,2.9,0,0,1-.4.1,3.12,3.12,0,0,0-.43.1c-.27.07-.58.16-.93.28L114,3.08a1.32,1.32,0,0,0-.3.08l-.1.07.08.08a.33.33,0,0,0,.14.12.66.66,0,0,1,.15.14l.09.14a.48.48,0,0,0,.1.12s0,0,.06,0l.16,0c.13-.05.42-.13.85-.25l.79-.2c.09,0,.36-.08.79-.2l.88-.2a2.36,2.36,0,0,1,.48-.07l.42,0,.15,0,.13,0a.29.29,0,0,1,.25,0,.28.28,0,0,1,.12.05l.15.07.18.13a.53.53,0,0,1,.15.15l.53.52.3.3.22.31a2,2,0,0,0,.33.42l.1.15.07.13,0,.1a.16.16,0,0,1,0,.09.09.09,0,0,1,0,.06l0,0-.18.07-.35.15-1,.4-.91.37-.56.24-1.46.6-.4.2-.14.06-.11,0s0,0,0,0,0,0,.1.06l.35.15.18.07.17.1.15.16.1.15a.51.51,0,0,1,.09.16.34.34,0,0,1,0,.16.22.22,0,0,1-.1.15l-.15.1-.3.13-.55.25-1.53.57-.48.18-.7.23a1.28,1.28,0,0,0-.32.07s0,.08,0,.2l0,.38a.65.65,0,0,0,0,.11.11.11,0,0,0,0,.06l.45-.17.83-.33.2-.07.6-.2a.47.47,0,0,1,.48-.15c.2,0,.3,0,.31-.07s.07-.08.19,0,.14,0,.08,0,0-.07,0,0,.12,0,.06,0,0-.07.1,0,.17.07.15,0,0,0,.19.08l.22.13.23.12s.06,0,.2.18l.2.2.17.2.08.1,0,.22a3.79,3.79,0,0,1,0,.38c0,.3,0,.84,0,1.63s0,1.4,0,2,0,1.22,0,1.89,0,1.21.05,1.46v.3a.25.25,0,0,1,0,.12.2.2,0,0,1-.08,0H118a.52.52,0,0,1-.21,0,2.69,2.69,0,0,1-.32-.13,2.16,2.16,0,0,1-.6-.4,1.07,1.07,0,0,1-.19-.18.27.27,0,0,1-.08-.15,4.46,4.46,0,0,1-.28-.63l-.3-.72a.82.82,0,0,0-.18-.28c-.08-.1-.21-.23-.37-.4a2.62,2.62,0,0,1-.29-.28c-.07-.08-.11-.11-.11-.1l.45.33c.22.17.42.33.6.5a2.5,2.5,0,0,0,.35.25l.1,0,0-.18V14.66l0-.27-.07,0-.18.1-.85.45-1.15.55-.78.35-.65.33-.78.3-.35.17h-1.1l-.3-.17a1.22,1.22,0,0,1-.28-.14l-.19-.15a.51.51,0,0,1-.09-.13l0-.07s0,0,0-.07l.1-.05.19-.05.24,0a.82.82,0,0,0,.26,0,2.81,2.81,0,0,0,.47-.19c.13,0,.32-.13.57-.25l.73-.35.73-.35,1-.45.32-.15.83-.35.42-.23h.24a.62.62,0,0,1,.18,0l.19.1.25.13,0-.15v-.33c0-.18,0-.61,0-1.3V10.45c.12-.1.11-.14,0-.11s-.15,0,0,0,0,0-.18,0l-.75.25a3.42,3.42,0,0,0-.45.2,8.31,8.31,0,0,0-.87.35,5.49,5.49,0,0,1-.66.3l-.85.4-1,.48-.37.15-.45.18-.49.15a2.66,2.66,0,0,1-.39.07l-.35,0,0,.18c0,.08.07.13,0,.15s0,.06,0,.12l.1.13.1.1a.51.51,0,0,0,.15.07.85.85,0,0,0,.28,0l.27,0a1.28,1.28,0,0,0,.28-.07l.32-.1.35-.13.48-.2.58-.27.65-.3.72-.32.66-.26.45-.18.26,0,.2,0,.16,0a.75.75,0,0,1,.18.07l.2.11.2.15.1.14s0,.07,0,.07l-.06.07-.13.07a.87.87,0,0,1-.25.13,1.9,1.9,0,0,1-.33.22l-1,.55-2.06,1c-.18.1-.46.23-.83.41a4.78,4.78,0,0,1-.61.27,3,3,0,0,1,.51-.33l.45-.3c.27-.14.37-.21.31-.22s0,0,.12-.11.17-.08,0,0l-.1,0-.2.07-.3.1-.28.1a1.71,1.71,0,0,1-.35.06l-.46,0a1.45,1.45,0,0,1-.39,0l-.2,0-.2-.08-.23-.12-.3-.26s0,0-.06,0,0,.07,0,.15a1,1,0,0,0,0,.2l-.07.55-.13.58-.12.32,0,.18-.4.93-.1.22c0,.09-.09.16-.12.23l-.1.17a.77.77,0,0,0-.15.1l-.21.15-.25.13a.27.27,0,0,1-.17.07h-.13l.13-.1.09-.11.06-.12a1.34,1.34,0,0,0,0-.24l0-.68,0-.37.1-.66.08-.45,0-.45c0-.32.06-.67.08-1.05V11.5a.82.82,0,0,0,0-.27.35.35,0,0,0-.06-.14l-.06-.14,0,0a.41.41,0,0,1,0-.17l0-.13.35.18.33.2a3.92,3.92,0,0,1,.32.25l.28.2.15.19a.49.49,0,0,1,.07.11l0,.12V12a1,1,0,0,0,0,.21s0,0,0,0l.26,0a1.28,1.28,0,0,1,.38-.13l.18-.05.57-.2,2.06-.78L113,11l-.2-.07-.2-.08a.33.33,0,0,1-.15-.1l-.15-.07a.14.14,0,0,0-.09,0l-.09,0-.13,0s0,0,0,0l.18-.1-.25-.25.07-.41c0-.28.1-.48.13-.6a1.62,1.62,0,0,1,0-.21,1.77,1.77,0,0,0,0-.24.71.71,0,0,1,0-.22c0-.1,0-.2,0-.3s.06-.33.08-.33h.16a.75.75,0,0,1,.19.09l.2.1a1.11,1.11,0,0,1,.23.15l.15.15.12.14a.39.39,0,0,1,.08.14l0,.25v.37l0,.48a3.43,3.43,0,0,0,.42-.28l.73-.5.78-.55c.16-.1.37-.24.62-.42l.23-.18,0,0-.3-.18-.82.38-.13,0L115,8l.7-.4V7.49a.13.13,0,0,0,0-.12l0,0h-.07l-.35-.1-.33,0-.1-.07-.17-.1a.56.56,0,0,1-.18-.13l-.17-.15c-.1-.1-.15-.17-.14-.2s0-.06,0-.07,0,0,.09,0l.55,0h.48a.4.4,0,0,1,.17.09l.38.2.17.13.15.15.18.17.18-.15c.21-.16.38-.31.5-.42l.62-.58.33-.33a4.47,4.47,0,0,0,.32-.35l.36-.4.27-.4a2,2,0,0,0,.2-.32.63.63,0,0,0,.08-.21l0-.07a.26.26,0,0,1,0-.11.5.5,0,0,0,0-.12.22.22,0,0,0,0-.1L119,3.46l-.13-.18-.22.05a1,1,0,0,0-.25,0l-.28,0-1.9.45a9.56,9.56,0,0,0-.93.25l-.5.13a1.33,1.33,0,0,0-.3.08l-.13,0-.25.08-.05,1-.13.76c0,.11,0,.25-.07.4l-.2.8-.1.57a1.11,1.11,0,0,1,0,.13s0,0,0,0l0,0-.1,0a.39.39,0,0,1-.15,0,2,2,0,0,1-.35-.2.37.37,0,0,1-.19-.15.35.35,0,0,0-.13-.14s-.06,0-.08-.11l0-.13V7.22a3.42,3.42,0,0,0-.4.32l-.29.27a.57.57,0,0,0-.16.21h0c-.1.15-.16.25-.18.29l-.13.15-.14.14a.42.42,0,0,1-.17.1l-.23,0h-.17l-.18,0-.2-.1a1.93,1.93,0,0,1-.29-.17,1.48,1.48,0,0,1-.26-.21l-.3-.2a3.2,3.2,0,0,0-.24-.26,1.59,1.59,0,0,1-.18-.22.31.31,0,0,1-.06-.12.05.05,0,0,1,0,0l.06,0c.09,0,.24-.11.48-.32l.75-.63.35-.25-.4-.3-.18-.1-.12,0-.18,0-.27.1-1,.23,0,.35V7.54l0,.73h-.18a.89.89,0,0,1-.37-.1L107.58,8a.32.32,0,0,1-.17-.12l-.18-.13-.12-.16a.27.27,0,0,1-.07-.14s0-.14,0-.27V6.79l.1-1.45V5l-.07-.07a1.25,1.25,0,0,0-.23-.23l-.17-.22-.07-.05s0,0,0,0h.07a.13.13,0,0,1,.07.06l.33.18a.21.21,0,0,0,.15.07l.12.08.25.07.18.1L108,5l.16.15a.29.29,0,0,1,.11.15c.06,0,.09,0,.11.12l0,.18v.1a.06.06,0,0,0,0,.06s0,0,.07,0l.73-.28.25-.1c.3-.11.91-.32,1.83-.62l1.48-.48.12,0a.22.22,0,0,0,0-.08l0-.15V3.58c0-.05,0-.08,0-.08h-.06a.36.36,0,0,0-.15.08l-.22.08-.31.12s0,0,.09-.08.16-.08.24-.12l.38-.22v0l-.05-.05-.08,0h-.07l-.15,0-.25.05-.31,0h-.28a.73.73,0,0,1-.24-.07l-.18-.07-.21-.11-.25-.19-.31-.28a3.58,3.58,0,0,1-.27-.29.78.78,0,0,1-.13-.2L110.06,2A.22.22,0,0,0,110,2l-.17-.07h-.08s0,0,0,0,0,0,0,0a.08.08,0,0,1,.06,0l.15,0,.13.05a.32.32,0,0,1,.13.07l.2.18a.54.54,0,0,0,.22.15l.15.1a.5.5,0,0,0,.3,0l.25-.05.3-.1.43-.13.5-.12c.39-.12.67-.19.85-.23l.58-.12a3.15,3.15,0,0,1,.53-.13l.75-.17.34-.06a1.31,1.31,0,0,1,.31,0l.25,0h.13ZM109.44,9.1a1.85,1.85,0,0,1,.35.1l.27.1a.37.37,0,0,1,.18.1,1.05,1.05,0,0,1,.3.15l.13.1a.4.4,0,0,0,.1.12.7.7,0,0,1,.1.19,1.87,1.87,0,0,1,0,.34c0,.17,0,.42,0,.75v.25a.31.31,0,0,1,0,.13s0,0,0,0h-.08l-.12,0a.41.41,0,0,1-.18,0,.56.56,0,0,1-.2-.12l-.2-.1a.4.4,0,0,1-.15-.13l-.1-.1-.08-.09a.67.67,0,0,1,0-.21V9.42l-.18-.07-.12-.08,0-.07V9.12S109.4,9.1,109.44,9.1Zm3.43-4.34h-.1l-1.55.48-1,.32.73.25.3.14.26.15a1.55,1.55,0,0,1,.24.19l.15.15,0,.1a.2.2,0,0,1,0,.11s0,.08,0,.09l0,.13h-.11a1.09,1.09,0,0,1-.24,0h-.3a.59.59,0,0,0-.27,0l-.25.07-.25.08a1.15,1.15,0,0,0-.28.12l-.3.15-.33.23.13.1a.18.18,0,0,0,.1,0l.25,0h1a1.51,1.51,0,0,0,.33-.07,1.41,1.41,0,0,0,.29-.11l.36-.19a1.3,1.3,0,0,0,.26-.17.46.46,0,0,0,.12-.13l.12-.47.18-.91.1-.45.05-.45v0Zm.63-1.83a.54.54,0,0,0-.15.08l-.1,0h0l0,.05s0,0,.08,0l.1,0,.07-.05a.09.09,0,0,0,0,0v0h0Zm2.58,1.76.18,0s0,0,.17,0l.18.08L117,5l.17.15a.75.75,0,0,1,.12.14s0,.08.07.13a.27.27,0,0,1,0,.13l0,.07-.13.13-.2,0-.17.07a.67.67,0,0,1-.23,0l-.32,0-.48.07-.6.16-.75.17,0-.07.15-.1.21-.17a2,2,0,0,0,.26-.24,1.78,1.78,0,0,1,.27-.21.8.8,0,0,0,.18-.14c.07,0,.1-.06.1-.1l-.22-.12a.39.39,0,0,1-.15-.13L115.1,5A.33.33,0,0,1,115,5l-.1-.07a.11.11,0,0,1-.09,0s0-.06,0-.07H115l.35,0h.17l.15,0,.18,0,.07,0,.1,0Z"/>
    <path d="M132.2,1.48a.45.45,0,0,0,.45.37,1.87,1.87,0,0,1,1.2,1.71c0,.42-.44,1.11-1.33,2.08q-1.31,1.68-6,6.47c-.91.81-1.37,1.22-1.41,1.22v0a21.78,21.78,0,0,0,2.61-3.18,35.51,35.51,0,0,0,2.88-4.47,13.49,13.49,0,0,0,1.63-3.76,1.47,1.47,0,0,0-.1-.42Zm4.28-.83.38.08c1.07.65,1.6,1.21,1.6,1.68v2c0,.2,0,.48,0,.85a9.72,9.72,0,0,1,2.71-1,1.43,1.43,0,0,1,.93.75v.1a18.06,18.06,0,0,0-3.69,1.85c0,.72,0,1.26,0,1.61v2.88h0l.72-.45a2,2,0,0,1,.83.42c0-.13-.27-1.05-.8-2.75a3.31,3.31,0,0,1-.2-.83c.06-.3.14-.45.22-.45h.05a3.45,3.45,0,0,1,.4,1q.84,1.35,2.59,3.68a13.91,13.91,0,0,1,1.7,2.11l1.55,1.72h.1a.82.82,0,0,0,.83-.55h.08v.08a5.11,5.11,0,0,1-.63,1.15c0,.27-.12.4-.35.4q-1.41,0-4.09-3.13a8.81,8.81,0,0,1-1-1.38h0a10.93,10.93,0,0,1-1.7,1.05c-.2.19-.33.28-.38.28v4a2.09,2.09,0,0,0,0,.38c0,.1-.07.15-.1.15h-.12a1.82,1.82,0,0,1-1.16-1c0-.06,0-.1,0-.1l0-.22V15.74a.21.21,0,0,1,.05-.13s0,0-.05,0l.05-.2a4.8,4.8,0,0,1-.05-.52,1.94,1.94,0,0,1-.95.52h-.07a.37.37,0,0,0-.23-.1,2.59,2.59,0,0,1-1.28-1.12,26.91,26.91,0,0,1-3,3.13,25,25,0,0,1-2.48,2.18v-.08a15.9,15.9,0,0,0,2.08-2.1,15.44,15.44,0,0,0,3.09-4.61,34.45,34.45,0,0,0,1.15-3.81,0,0,0,0,0,0,0,2.13,2.13,0,0,1-.65.18,1.92,1.92,0,0,1-1.35-.9.52.52,0,0,1-.15-.31V7.64l0,0,.35,0h.08a10.39,10.39,0,0,0,2.33-1.18,4.28,4.28,0,0,0,1-.55V5.24h.05l-.05-.08V4.84s0,0,.05,0,0,0-.05,0c0-1.17,0-2.08,0-2.73V1.58c0-.27-.21-.45-.63-.55,0,0-.06-.11-.17-.23V.75a.72.72,0,0,1,.17-.17Zm-3.56,9.5q-1,3.26-2.1,6.57a3.37,3.37,0,0,0-.08.77s0,.08-.12.13c-.39,0-.83-.33-1.33-1a1,1,0,0,1,0-.27,17.9,17.9,0,0,1,.55-2.54l.1-.85c0-.41,0-.79,0-1.13v-.6a.69.69,0,0,0-.27-.45v-.07h.1a2.21,2.21,0,0,1,.95.42c.54.47.8.84.8,1.11s0,.4,0,.6V13h0a7.93,7.93,0,0,0,1.21-2.28,1.87,1.87,0,0,0,.2-.55Zm3.74-.85a5.51,5.51,0,0,1-.73,2.25,17.49,17.49,0,0,1-1,2.06h0a24.55,24.55,0,0,1,2.15-1.33c0-1.52,0-2.62,0-3.31V7.74a4.93,4.93,0,0,0-.83.61A1,1,0,0,1,136.66,9.3Z"/>
  </g>
</svg>
